<?xml version="1.0" encoding="utf-8"?>
<svg version="1.1" xmlns:xlink="http://www.w3.org/1999/xlink" width="89px" height="67px" xmlns="http://www.w3.org/2000/svg">
  <g transform="matrix(1 0 0 1 -775 -2629 )">
    <path d="M 44.6195621268012 57.5095012314453  C 41.7572210832028 57.5095012314453  39.4368352011068 59.6339966564436  39.4368352011068 62.2546945751953  C 39.4368352011068 64.875392493947  41.7572210832028 66.9998879189453  44.6195621268012 66.9998879189453  C 47.4819031703997 66.9998879189453  49.8022890524957 64.875392493947  49.8022890524957 62.2546945751953  C 49.8022890524957 59.6339966564436  47.4819031703997 57.5095012314453  44.6195621268012 57.5095012314453  Z M 62.1265687323351 44.6937429326172  L 61.8817155305773 44.4321968515625  C 52.3220722032778 35.6904783118996  36.8354343164053 35.6904783118996  27.2757909891059 44.4321968515625  C 26.6318114148651 45.0218107040787  26.2700274571959 45.8214986991655  26.2700274571959 46.655338605957  C 26.2700274571959 48.3917203241522  27.8074330452268 49.7993358260997  29.7039189483833 49.7993358260997  C 30.6146435961658 49.7993358260997  31.4880673334198 49.4680942128678  32.1320469076606 48.8784803603516  C 35.4313369378278 45.8530180828134  39.9092187833285 44.1529351414111  44.5787532598416 44.1529351414111  C 49.2482877363547 44.1529351414111  53.7261695818554 45.8530180828134  57.0254596120226 48.8784803603516  L 57.2703128137804 49.1400264414062  C 57.9142923880212 49.7296402939225  58.7877161252751 50.0608819071544  59.6984407730577 50.0608819071544  C 61.5949266762142 50.0608819071544  63.1323322642451 48.6532664052069  63.1323322642451 46.9168846870117  C 63.1323322642451 46.0830447802202  62.7705483065759 45.2833567851334  62.1265687323351 44.6937429326172  Z M 44.5175399415365 18.48025774864  C 33.1524369602555 18.48025774864  22.252882929886 22.6141577172041  14.2169515610677 29.9724344931641  C 13.5550164939995 30.5684705969068  13.1822115704265 31.3829047336797  13.1822115704265 32.23293996875  C 13.1822115704265 33.9839739243057  14.7325903609272 35.4034674115088  16.6450795203451 35.4034674115088  C 17.5534938959887 35.4034674115088  18.4255311206199 35.0766423660762  19.0732074796224 34.4934454443359  C 25.8157602439559 28.319337537233  34.9611300610056 24.8506949642459  44.4971355259223 24.8506949642459  C 54.0331409908391 24.8506949642459  63.1785108078888 28.319337537233  69.9210635722222 34.4934454443359  C 70.5723171169808 35.084791302123  71.4523822914693 35.4165947949743  72.3695959471137 35.4165947949743  C 74.2900036560545 35.4165947949743  75.8468016992718 33.9912239779989  75.8468016992718 32.23293996875  C 75.8468016992718 31.3840036668005  75.4764817596165 30.5702271369424  74.8181283220052 29.9724344931641  C 66.7821969531869 22.6141577172041  55.8826429228175 18.48025774864  44.5175399415365 18.48025774864  Z M 87.7953500161241 16.5214927705078  L 87.6729233795139 16.4094015742188  C 63.7691349665484 -5.46978464399123  25.0210916433041 -5.46978464399123  1.11730323033855 16.4094015742187  C 0.457088874685443 17.0138796435458  0.0861843117887232 17.8337278429583  0.0861843117887232 18.6885889267578  C 0.0861843117887232 20.4687449799953  1.66234802921083 21.9118465919078  3.60664450792101 21.9118465919078  C 4.54032860375905 21.9118465919078  5.43577142985037 21.572254348624  6.09598578550348 20.9677762792969  C 16.2834550657128 11.6335882585634  30.105060845967 6.38912737065459  44.5175399415365 6.38912737065459  C 58.930019037106 6.38912737065459  72.7516248173601 11.6335882585634  82.9390940975695 20.9677762792969  C 83.5830736718103 21.5573901318131  84.4564974090642 21.888631745045  85.3672220568468 21.888631745045  C 87.2637079600033 21.888631745045  88.8011135480341 20.4810162430975  88.8011135480341 18.7446345249023  C 88.8011135480341 17.9107946181108  88.4393295903649 17.1111066230241  87.7953500161241 16.5214927705078  Z " fill-rule="nonzero" fill="#282828" stroke="none" transform="matrix(1 0 0 1 775 2629 )" />
  </g>
</svg>