<?xml version="1.0" encoding="utf-8"?>
<svg version="1.1" xmlns:xlink="http://www.w3.org/1999/xlink" width="76px" height="79px" xmlns="http://www.w3.org/2000/svg">
  <g transform="matrix(1 0 0 1 -780 -4694 )">
    <path d="M 66.140214340778 44.1238075240202  C 66.1395374250968 44.1238075240202  66.1388605094156 44.1238075975352  66.13818359375 44.1238077445652  C 64.1041943818917 44.1217301038766  62.12424548003 44.7866047779481  60.4947091238839 46.0189087975543  L 54.9890694754464 42.9429670516304  C 56.387538819034 38.4399407696833  55.5137051724695 33.5288338497604  52.6510463169643 29.802843919837  L 59.5953369140625 22.5756453804348  C 60.7916168542586 23.0262405811737  62.057761801613 23.2569695841537  63.3341611923591 23.2569695841537  C 69.2556622774223 23.2569695841537  74.0559873642341 18.3973269791068  74.0559873642341 12.4026540270885  C 74.0559873642341 6.40798107507025  69.2556622774223 1.54833847002328  63.3341611923591 1.54833847002328  C 57.4126601072958 1.54833847002328  52.6123350204841 6.40798107507025  52.6123350204841 12.4026540270885  C 52.6123350204841 14.7371165836453  53.3557812769568 17.0093764290773  54.7323521205357 18.8822477921196  L 48.0129045758928 25.8731037703804  C 44.6536457238878 24.0918280356956  40.730569156282 23.7433083995353  37.1162004743303 24.90505859375  L 31.4098388671875 15.2246068274456  C 32.3774047826511 13.6874771693701  32.8913983041322 11.9026581038323  32.8913983041322 10.0799592409034  C 32.8913983041322 4.7928368727285  28.6576550550616 0.506777345522935  23.4350680864983 0.506777345522935  C 18.212481117935 0.506777345522935  13.9787378688644 4.7928368727285  13.9787378688644 10.0799592409034  C 13.9787378688644 15.3670816090782  18.212481117935 19.6531411362838  23.4350680864983 19.6531411362838  C 24.5347268625736 19.6531411362838  25.6259587309001 19.4589660760475  26.6597063337053 19.0793452785326  L 31.8896763392857 27.9496042798913  C 29.8537087550634 29.8114273947892  28.3923710378395 32.2290351278417  27.6814069475446 34.9116805366848  L 20.6854282924107 35.0590675951087  C 18.8410015534134 31.4849830257055  15.1876875175481 29.244412895668  11.2044665753938 29.244412895668  C 5.29676297799466 29.244412895668  0.507622964902774 34.0927322132695  0.507622964902774 40.0734371823528  C 0.507622964902774 46.0541421514361  5.29676297799466 50.9024614690376  11.2044665753938 50.9024614690376  C 16.7040350945195 50.9024614690376  21.3074549478874 46.6807510427574  21.8492710658482 41.1403099524456  L 27.39970703125 41.0234468410326  C 28.2290298226876 45.9430084852532  31.5085054400484 50.080477732046  36.0729631696429 51.9658457880435  C 35.3450230189732 55.7525594429348  34.8918910435268 58.1517416779891  34.6084681919643 59.690148607337  C 30.1493273100387 60.5571530177348  26.9259353242693 64.5067505509052  26.9259353242693 69.1034973395747  C 26.9259353242693 74.3973628719251  31.1650782641012 78.6888888137595  36.3943260887782 78.6888888137595  C 41.6235739134552 78.6888888137595  45.8627168532872 74.3973628719251  45.8627168532872 69.1034973395747  C 45.8627168532872 65.4586508799866  43.8207799587688 62.1291896851553  40.5939453125 60.5125509510869  C 40.967822265625 58.5066915760869  41.5200230189732 55.6069166100543  42.0188127790178 53.0045320991848  C 45.8433151113018 52.8444359792302  49.4417195963452 51.1269437494583  51.9971923828125 48.2419242527174  L 57.0428083147321 51.06146484375  C 56.7989834340914 51.9211930069953  56.6752694468048 52.8112490197754  56.6752694468048 53.705710547118  C 56.6752694468048 58.9976494611325  60.9128696178478 63.2876135702158  66.140214340778 63.2876135702158  C 71.3675590637082 63.2876135702158  75.6051592347512 58.9976494611325  75.6051592347512 53.705710547118  C 75.6051592347512 48.4137716331035  71.3675590637082 44.1238075240202  66.140214340778 44.1238075240202  Z M 23.4378173828125 13.5501503057065  C 21.5420244866353 13.547746832318  20.0059059769258 11.9922563972548  20.0040073939732 10.0730366847826  C 20.0040074536391 8.15267990122887  21.5417622265473 6.59592317322824  23.4386788504464 6.59592317322824  C 25.3355955165357 6.59592317322824  26.8733503069196 8.15267996788695  26.8733503069196 10.0730367941522  C 26.8733503069196 11.9933936204174  25.3355955165357 13.5501504150761  23.4386788504464 13.5501504150761  Z M 58.6434151785714 12.4172758152174  C 58.646262859089 9.80728012308482  60.7352940935132 7.69204465182931  63.3134312220982 7.68868036684783  C 65.8939471074738 7.68868028642429  67.9851702008929 9.80574458054005  67.9851702008929 12.4172757347939  C 67.9851702008929 15.0288068890477  65.8939471074738 17.1458711831634  63.3142926897321 17.1458711831634  C 60.7346383030144 17.1458711831634  58.643415222446 15.0288069380639  58.6434151785714 12.4172758152174  Z M 15.8749930245536 40.0710996942935  C 15.8721444045001 42.6814353978839  13.7825890723192 44.7968113222703  11.2041155133929 44.799695142663  C 8.62446109565118 44.799695142663  6.53323800223214 42.6826308485473  6.53323800223214 40.0710996942935  C 6.53323800223214 37.4595685400397  8.62446109565118 35.3425042459239  11.2041155133929 35.3425042459239  C 13.7837699311345 35.3425042459239  15.8749930245536 37.4595685400397  15.8749930245536 40.0710996942935  Z M 39.8229317801339 69.0985011888587  C 39.8210331971813 71.0177209013309  38.2849146874719 72.5732113363941  36.3891217912946 72.5756148097826  C 34.4913436575714 72.5756149191522  32.9535888671875 71.0188581244935  32.9535888671875 69.0985012982283  C 32.9535888671875 67.178144471963  34.4913436575714 65.6213876773044  36.3882603236607 65.6213876773044  C 38.28517698975 65.6213876773044  39.8229317801339 67.178144471963  39.8229317801339 69.0985012982283  Z M 41.4218157087054 46.9198012907609  L 41.4252615792411 46.9163128396739  C 41.0932569981706 46.9162845717877  40.7615589070636 46.8958979443539  40.4319893973214 46.8552649456522  C 40.3389508928571 46.8273573369565  40.2433279854911 46.8029381793478  40.1459821428571 46.7837516983696  C 39.9958425418585 46.7552908675125  39.8437894537303 46.7383816699928  39.6911272321429 46.7331691576087  C 35.9193147077909 45.9091387708332  33.2267720487094 42.5323326743132  33.2267720487094 38.6260092135079  C 33.2267720487094 34.0454741200085  36.8947048444333 30.3322167542688  41.4193292473701 30.3322167542688  C 45.9439536503069 30.3322167542688  49.6118864460308 34.0454741200085  49.6118864460308 38.6260092135079  C 49.6118864460308 43.2055613154145  45.9454689102452 46.9184113853921  41.4218157087054 46.9198012907609  Z M 69.575439453125 53.7100713315217  C 69.5706920324933 55.6287491352609  68.0334474427055 57.181869143503  66.13818359375 57.182824388587  C 64.2422777131869 57.1813786857926  62.706099239822 55.6250458490042  62.706099239822 53.7057117540466  C 62.706099239822 51.7853549277814  64.243854030206 50.2285981331227  66.1407706962952 50.2285981331227  C 68.0376873623845 50.2285981331227  69.5754421527685 51.7853549277814  69.5754421527685 53.7057117540466  C 69.5754421527685 53.7071649469642  69.5754412528871 53.7086181397463  69.575439453125 53.7100713315217  Z " fill-rule="nonzero" fill="#313131" stroke="none" transform="matrix(1 0 0 1 780 4694 )" />
  </g>
</svg>