<?xml version="1.0" encoding="utf-8"?>
<svg version="1.1" xmlns:xlink="http://www.w3.org/1999/xlink" width="289px" height="469px" xmlns="http://www.w3.org/2000/svg">
  <defs>
    <filter x="1252px" y="1719px" width="289px" height="469px" filterUnits="userSpaceOnUse" id="filter13">
      <feOffset dx="0" dy="0" in="SourceAlpha" result="shadowOffsetInner" />
      <feGaussianBlur stdDeviation="10" in="shadowOffsetInner" result="shadowGaussian" />
      <feComposite in2="shadowGaussian" operator="atop" in="SourceAlpha" result="shadowComposite" />
      <feColorMatrix type="matrix" values="0 0 0 0 0.843137254901961  0 0 0 0 0.843137254901961  0 0 0 0 0.843137254901961  0 0 0 0.874509803921569 0  " in="shadowComposite" />
    </filter>
    <g id="widget14">
      <path d="M 1272.5 1759  A 19.5 19.5 0 0 1 1292 1739.5 L 1501 1739.5  A 19.5 19.5 0 0 1 1520.5 1759 L 1520.5 2148  A 19.5 19.5 0 0 1 1501 2167.5 L 1292 2167.5  A 19.5 19.5 0 0 1 1272.5 2148 L 1272.5 1759  Z " fill-rule="nonzero" fill="#ffffff" stroke="none" fill-opacity="0.874509803921569" />
      <path d="M 1272.5 1759  A 19.5 19.5 0 0 1 1292 1739.5 L 1501 1739.5  A 19.5 19.5 0 0 1 1520.5 1759 L 1520.5 2148  A 19.5 19.5 0 0 1 1501 2167.5 L 1292 2167.5  A 19.5 19.5 0 0 1 1272.5 2148 L 1272.5 1759  Z " stroke-width="1" stroke="#d7d7d7" fill="none" />
    </g>
  </defs>
  <g transform="matrix(1 0 0 1 -1252 -1719 )">
    <use xlink:href="#widget14" filter="url(#filter13)" />
    <use xlink:href="#widget14" />
  </g>
</svg>