<?xml version="1.0" encoding="utf-8"?>
<svg version="1.1" xmlns:xlink="http://www.w3.org/1999/xlink" width="72px" height="72px" xmlns="http://www.w3.org/2000/svg">
  <g transform="matrix(1 0 0 1 -786 -3333 )">
    <path d="M 67.7601219512195 18.1892168674699  C 69.0739024390244 19.2090361445783  69.6578048780488 19.9507228915663  70.5232317073171 21.4134939759036  C 71.3886585365854 22.876265060241  71.8370121951219 23.5149397590361  71 25.3279518072289  L 71 62.4740963855422  C 71.7953048780488 65.3481325301205  71.2948170731707 67.2435542168675  69.3762804878049 69.1492771084337  C 67.457743902439 71.055  65.5496341463415 71.5597590361446  62.6614024390244 71  L 9.33859756097561 71  C 6.43993902439025 71.5494578313253  4.53182926829268 71.0446987951807  2.62371951219512 69.1492771084337  C 0.70518292682927 67.2435542168675  0.20469512195122 65.3584337349398  1 62.4740963855422  L 1 25.3279518072289  C 0.110853658536584 23.5149397590361  0.580060975609759 22.876265060241  1.50804878048781 21.4134939759036  C 2.44646341463415 19.9507228915663  3.18676829268293 19.2090361445783  4.72993902439025 18.1892168674699  L 30.8804268292683 1.88240963855422  C 32.4653048780488 0.862590361445783  34.2587195121951 0.347530120481927  36.2398170731707 0.347530120481927  C 38.2209146341463 0.347530120481927  40.0143292682927 0.852289156626506  41.5992073170732 1.88240963855422  L 67.7601219512195 18.1892168674699  Z " fill-rule="nonzero" fill="#333333" stroke="none" transform="matrix(1 0 0 1 786 3333 )" />
  </g>
</svg>