<?xml version="1.0" encoding="utf-8"?>
<svg version="1.1" xmlns:xlink="http://www.w3.org/1999/xlink" width="44px" height="21px" xmlns="http://www.w3.org/2000/svg">
  <g transform="matrix(1 0 0 1 -806 -3376 )">
    <path d="M 21 16.99734375  C 20.2414224137931 18.9121875  18.6559051724138 20.4796875  16.7100431034483 20.4796875  L 3.61150862068966 20.4796875  C 1.67465517241379 20.4796875  0.0891379310344879 18.9121875  0 16.99734375  L 0 3.94078125  C 0.0891379310344879 2.0259375  1.67465517241379 0.458437499999999  3.61150862068966 0.458437499999999  L 16.7100431034483 0.458437499999999  C 18.6468965517241 0.458437499999999  20.2324137931034 2.0259375  21 3.94078125  L 21 16.99734375  Z M 31.844525862069 18.31546875  C 31.844525862069 19.15265625  31.1598706896552 19.82953125  30.3130603448276 19.82953125  L 24.6196120689655 19.82953125  C 23.7728017241379 19.82953125  23.0881465517241 19.14375  23.0881465517241 18.31546875  L 23.0881465517241 12.6421875  C 23.0881465517241 11.805  23.7818103448276 11.128125  24.6196120689655 11.128125  L 30.3130603448276 11.128125  C 31.1598706896552 11.128125  31.844525862069 11.81390625  31.844525862069 12.6421875  L 31.844525862069 18.31546875  Z M 31.844525862069 7.6546875  C 31.844525862069 8.48296875  31.1598706896552 9.16875  30.3130603448276 9.16875  L 24.6196120689655 9.16875  C 23.7728017241379 9.16875  23.0881465517241 8.48296875  23.0881465517241 7.6546875  L 23.0881465517241 1.98140625  C 23.0881465517241 1.14421874999999  23.7818103448276 0.467343750000001  24.6196120689655 0.467343750000001  L 30.3130603448276 0.467343750000001  C 31.1598706896552 0.467343750000001  31.844525862069 1.153125  31.844525862069 1.98140625  L 31.844525862069 7.6546875  Z M 43.2494396551724 18.31546875  C 43.2494396551724 19.15265625  42.5647844827586 19.82953125  41.717974137931 19.82953125  L 36.024525862069 19.82953125  C 35.1777155172414 19.82953125  34.4930603448276 19.14375  34.4930603448276 18.31546875  L 34.4930603448276 12.6421875  C 34.4930603448276 11.805  35.186724137931 11.128125  36.024525862069 11.128125  L 41.717974137931 11.128125  C 42.5647844827586 11.128125  43.2494396551724 11.81390625  43.2494396551724 12.6421875  L 43.2494396551724 18.31546875  Z " fill-rule="nonzero" fill="#ffffff" stroke="none" transform="matrix(1 0 0 1 806 3376 )" />
  </g>
</svg>