<?xml version="1.0" encoding="utf-8"?>
<svg version="1.1" xmlns:xlink="http://www.w3.org/1999/xlink" width="37px" height="32px" xmlns="http://www.w3.org/2000/svg">
  <g transform="matrix(1 0 0 1 -777 -4032 )">
    <path d="M 35.8851964613971 23.8494565217391  C 35.3884765625 24.520652173913  34.6938763786765 24.9130434782609  33.9750459558824 25  L 2.9845703125 25  C 2.26573988970588 24.9130434782609  1.57113970588235 24.5258152173913  1.08249655330882 23.8494565217391  C 0.593853400735294 23.173097826087  0.347512637867647 22.2592391304348  0.408088235294117 21.3402173913043  C 0.569623161764705 18.8309782608696  1.04615119485294 16.3888586956522  1.82555721507353 14.0809782608696  C 2.58073299632353 11.8402173913043  3.60647977941176 9.775  4.87452895220588 7.93695652173913  C 6.13450137867647 6.10923913043478  7.60446920955882 4.55516304347826  9.24001034007353 3.31086956521739  C 10.9078584558824 2.04592391304347  12.7130112591912 1.13722826086956  14.6070082720588 0.610597826086951  C 15.8750574448529 0.259510869565212  17.1754136029412 0.078804347826082  18.4838465073529 0.078804347826082  C 19.7882410386029 0.078804347826082  21.0926355698529 0.259510869565212  22.3606847426471 0.610597826086951  C 24.2546817555147 1.13722826086956  26.0598345588235 2.04592391304347  27.7276826746324 3.31086956521739  C 29.3632238051471 4.54999999999999  30.8331916360294 6.10923913043477  32.0931640625 7.93695652173913  C 33.3612132352941 9.775  34.3869600183824 11.8402173913043  35.1421357996324 14.0809782608696  C 35.9215418198529 16.3888586956522  36.3980698529412 18.8309782608696  36.5596047794118 21.3402173913043  C 36.6201803768382 22.2592391304348  36.3738396139706 23.173097826087  35.8851964613971 23.8494565217391  Z M 21.8074276194853 3.8375  C 20.7211052389706 3.53288043478261  19.6024758731618 3.38315217391304  18.4798081341912 3.38315217391304  C 17.3571403952206 3.38315217391304  16.2385110294118 3.53804347826087  15.1521886488971 3.8375  C 8.54541015625 5.67554347826087  3.53782743566176 12.9864130434783  2.9845703125 21  L 33.9790843290441 21  C 33.4217888327206 12.9864130434783  28.4182444852941 5.68070652173913  21.8074276194853 3.8375  Z M 36.5999885110294 29.8540760869565  C 36.5999885110294 30.7679347826087  36.0184627757353 31.50625  35.3077090992647 31  L 1.78921185661765 31  C 1.0744198069853 31.50625  0.496932444852943 30.7679347826087  0.496932444852943 29.8540760869565  C 0.496932444852943 28.9402173913043  1.0744198069853 28.2019021739131  1.78921185661765 28  L 35.3077090992647 28  C 36.0225011488971 28.2019021739131  36.5999885110294 28.9402173913043  36.5999885110294 29.8540760869565  Z " fill-rule="nonzero" fill="#282828" stroke="none" transform="matrix(1 0 0 1 777 4032 )" />
  </g>
</svg>