<?xml version="1.0" encoding="utf-8"?>
<svg version="1.1" xmlns:xlink="http://www.w3.org/1999/xlink" width="10px" height="11px" xmlns="http://www.w3.org/2000/svg">
  <g transform="matrix(1 0 0 1 -789 -4025 )">
    <path d="M 2.03268914473684 10.0400275735294  L 0.513157894736841 10.4434283088235  L 0.513157894736841 5.89076286764706  C 0.513157894736841 2.68276654411765  2.63815789473684 0.0702665441176452  5.24753289473684 0.0702665441176452  C 6.50925164473684 0.0702665441176452  7.69675164473684 0.675367647058823  8.59128289473684 1.77991727941176  C 9.48581414473684 2.87966452205882  9.98190789473684 4.33959099264706  9.98190789473684 5.89076286764706  L 9.98190789473684 10.4434283088235  L 8.46628289473684 10.0400275735294  C 6.36472039473684 9.47814797794118  4.13425164473684 9.47814797794118  2.03268914473684 10.0400275735294  Z M 3.01315789473685 6.72157628676471  C 3.75143914473684 6.60151654411765  4.49753289473685 6.54388786764706  5.24362664473684 6.54388786764706  C 5.98972039473684 6.54388786764706  6.73581414473684 6.60151654411765  7.47800164473684 6.71677389705882  L 7.47800164473684 5.89556525735294  C 7.47800164473684 5.16560202205882  7.24362664473684 4.47886029411765  6.82175164473685 3.96020220588235  C 6.39987664473685 3.44154411764706  5.83737664473684 3.15340073529412  5.24753289473685 3.15340073529412  C 4.01706414473685 3.15340073529412  3.01315789473685 4.3828125  3.01315789473685 5.90036764705882  L 3.01315789473685 6.72157628676471  Z " fill-rule="nonzero" fill="#282828" stroke="none" transform="matrix(1 0 0 1 789 4025 )" />
  </g>
</svg>