<?xml version="1.0" encoding="utf-8"?>
<svg version="1.1" xmlns:xlink="http://www.w3.org/1999/xlink" width="31px" height="34px" xmlns="http://www.w3.org/2000/svg">
  <defs>
    <mask fill="white" id="clip15">
      <path d="M 1.259375 27.8495283018868  C 0.193749999999999 28.9962264150943  0 30.4957547169811  0.678124999999999 31.8188679245283  C 1.35625 33.1419811320755  2.809375 33.9358490566038  4.359375 33.9358490566038  L 26.640625 33.9358490566038  C 28.190625 33.9358490566038  29.64375 33.1419811320755  30.321875 31.8188679245283  C 31 30.4957547169811  30.80625 28.9962264150943  29.8375 27.9377358490566  L 20.246875 17  L 29.934375 6.15047169811321  C 30.903125 5.00377358490566  31.096875 3.50424528301887  30.41875 2.26933962264151  C 29.740625 0.946226415094338  28.2875 0.152358490566036  26.7375 0.152358490566036  L 4.45625 0.152358490566036  C 2.90625 0.152358490566036  1.453125 0.946226415094338  0.775000000000001 2.26933962264151  C 0.096875000000002 3.59245283018868  0.290625000000001 5.09198113207547  1.259375 6.15047169811321  L 10.946875 17  L 1.259375 27.8495283018868  Z M 14.046875 17  L 3.1 4.73915094339622  C 2.7125 4.29811320754717  2.615625 3.68066037735849  2.90625 3.15141509433962  C 3.196875 2.62216981132075  3.778125 2.26933962264151  4.359375 2.26933962264151  L 26.640625 2.26933962264151  C 27.31875 2.26933962264151  27.803125 2.62216981132075  28.09375 3.15141509433962  C 28.384375 3.68066037735849  28.2875 4.29811320754717  27.9 4.73915094339622  L 17.05 17  L 22.66875 23  L 8.428125 23  L 14.046875 17  Z M 3.1 30.8485849056604  C 2.615625 30.3193396226415  2.7125 29.7018867924528  3.1 29.2608490566038  L 6.490625 25  L 24.703125 25  L 28.09375 29.2608490566038  C 28.48125 29.7018867924528  28.578125 30.3193396226415  28.2875 30.8485849056604  C 27.996875 31.3778301886792  27.415625 31.7306603773585  26.834375 31.7306603773585  L 4.553125 31.7306603773585  C 3.875 31.7306603773585  3.390625 31.3778301886792  3.1 30.8485849056604  Z " fill-rule="evenodd" />
    </mask>
  </defs>
  <g transform="matrix(1 0 0 1 -831 -4030 )">
    <path d="M 1.259375 27.8495283018868  C 0.193749999999999 28.9962264150943  0 30.4957547169811  0.678124999999999 31.8188679245283  C 1.35625 33.1419811320755  2.809375 33.9358490566038  4.359375 33.9358490566038  L 26.640625 33.9358490566038  C 28.190625 33.9358490566038  29.64375 33.1419811320755  30.321875 31.8188679245283  C 31 30.4957547169811  30.80625 28.9962264150943  29.8375 27.9377358490566  L 20.246875 17  L 29.934375 6.15047169811321  C 30.903125 5.00377358490566  31.096875 3.50424528301887  30.41875 2.26933962264151  C 29.740625 0.946226415094338  28.2875 0.152358490566036  26.7375 0.152358490566036  L 4.45625 0.152358490566036  C 2.90625 0.152358490566036  1.453125 0.946226415094338  0.775000000000001 2.26933962264151  C 0.096875000000002 3.59245283018868  0.290625000000001 5.09198113207547  1.259375 6.15047169811321  L 10.946875 17  L 1.259375 27.8495283018868  Z M 14.046875 17  L 3.1 4.73915094339622  C 2.7125 4.29811320754717  2.615625 3.68066037735849  2.90625 3.15141509433962  C 3.196875 2.62216981132075  3.778125 2.26933962264151  4.359375 2.26933962264151  L 26.640625 2.26933962264151  C 27.31875 2.26933962264151  27.803125 2.62216981132075  28.09375 3.15141509433962  C 28.384375 3.68066037735849  28.2875 4.29811320754717  27.9 4.73915094339622  L 17.05 17  L 22.66875 23  L 8.428125 23  L 14.046875 17  Z M 3.1 30.8485849056604  C 2.615625 30.3193396226415  2.7125 29.7018867924528  3.1 29.2608490566038  L 6.490625 25  L 24.703125 25  L 28.09375 29.2608490566038  C 28.48125 29.7018867924528  28.578125 30.3193396226415  28.2875 30.8485849056604  C 27.996875 31.3778301886792  27.415625 31.7306603773585  26.834375 31.7306603773585  L 4.553125 31.7306603773585  C 3.875 31.7306603773585  3.390625 31.3778301886792  3.1 30.8485849056604  Z " fill-rule="nonzero" fill="#282828" stroke="none" transform="matrix(1 0 0 1 831 4030 )" />
    <path d="M 1.259375 27.8495283018868  C 0.193749999999999 28.9962264150943  0 30.4957547169811  0.678124999999999 31.8188679245283  C 1.35625 33.1419811320755  2.809375 33.9358490566038  4.359375 33.9358490566038  L 26.640625 33.9358490566038  C 28.190625 33.9358490566038  29.64375 33.1419811320755  30.321875 31.8188679245283  C 31 30.4957547169811  30.80625 28.9962264150943  29.8375 27.9377358490566  L 20.246875 17  L 29.934375 6.15047169811321  C 30.903125 5.00377358490566  31.096875 3.50424528301887  30.41875 2.26933962264151  C 29.740625 0.946226415094338  28.2875 0.152358490566036  26.7375 0.152358490566036  L 4.45625 0.152358490566036  C 2.90625 0.152358490566036  1.453125 0.946226415094338  0.775000000000001 2.26933962264151  C 0.096875000000002 3.59245283018868  0.290625000000001 5.09198113207547  1.259375 6.15047169811321  L 10.946875 17  L 1.259375 27.8495283018868  Z " stroke-width="6" stroke="#000000" fill="none" transform="matrix(1 0 0 1 831 4030 )" mask="url(#clip15)" />
    <path d="M 14.046875 17  L 3.1 4.73915094339622  C 2.7125 4.29811320754717  2.615625 3.68066037735849  2.90625 3.15141509433962  C 3.196875 2.62216981132075  3.778125 2.26933962264151  4.359375 2.26933962264151  L 26.640625 2.26933962264151  C 27.31875 2.26933962264151  27.803125 2.62216981132075  28.09375 3.15141509433962  C 28.384375 3.68066037735849  28.2875 4.29811320754717  27.9 4.73915094339622  L 17.05 17  L 22.66875 23  L 8.428125 23  L 14.046875 17  Z " stroke-width="6" stroke="#000000" fill="none" transform="matrix(1 0 0 1 831 4030 )" mask="url(#clip15)" />
    <path d="M 3.1 30.8485849056604  C 2.615625 30.3193396226415  2.7125 29.7018867924528  3.1 29.2608490566038  L 6.490625 25  L 24.703125 25  L 28.09375 29.2608490566038  C 28.48125 29.7018867924528  28.578125 30.3193396226415  28.2875 30.8485849056604  C 27.996875 31.3778301886792  27.415625 31.7306603773585  26.834375 31.7306603773585  L 4.553125 31.7306603773585  C 3.875 31.7306603773585  3.390625 31.3778301886792  3.1 30.8485849056604  Z " stroke-width="6" stroke="#000000" fill="none" transform="matrix(1 0 0 1 831 4030 )" mask="url(#clip15)" />
  </g>
</svg>